<svg xmlns="http://www.w3.org/2000/svg" xmlns:xlink="http://www.w3.org/1999/xlink" width="300" zoomAndPan="magnify" viewBox="0 0 224.87999 149.999998" height="200" preserveAspectRatio="xMidYMid meet" version="1.0"><defs><g/></defs><g fill="#ffffff" fill-opacity="1"><g transform="translate(10.200033, 60.757599)"><g><path d="M 13.15625 -25.140625 L 17.609375 -25.140625 C 18.148438 -25.140625 18.421875 -24.835938 18.421875 -24.234375 L 18.421875 -23.578125 C 18.421875 -22.046875 17.734375 -21.28125 16.359375 -21.28125 L 13.15625 -21.28125 L 13.15625 -1.703125 C 13.15625 -1.222656 12.972656 -0.816406 12.609375 -0.484375 C 12.242188 -0.160156 11.832031 0 11.375 0 L 9.453125 0 C 9.128906 0 8.914062 -0.0664062 8.8125 -0.203125 C 8.707031 -0.347656 8.65625 -0.582031 8.65625 -0.90625 L 8.65625 -46.046875 C 8.65625 -46.367188 8.707031 -46.585938 8.8125 -46.703125 C 8.914062 -46.816406 9.128906 -46.875 9.453125 -46.875 L 18.28125 -46.875 C 18.8125 -46.875 19.078125 -46.570312 19.078125 -45.96875 L 19.078125 -45.3125 C 19.078125 -43.769531 18.390625 -43 17.015625 -43 L 13.15625 -43 Z M 13.15625 -25.140625 "/></g></g></g><g fill="#ffffff" fill-opacity="1"><g transform="translate(53.948189, 60.757599)"><g><path d="M 7.53125 -0.796875 L 11.375 -45.90625 C 11.414062 -46.320312 11.550781 -46.585938 11.78125 -46.703125 C 12.019531 -46.816406 12.335938 -46.875 12.734375 -46.875 L 16.25 -46.875 C 16.664062 -46.875 16.984375 -46.816406 17.203125 -46.703125 C 17.429688 -46.585938 17.554688 -46.320312 17.578125 -45.90625 L 21.421875 -0.796875 L 21.421875 -0.59375 C 21.421875 -0.382812 21.378906 -0.234375 21.296875 -0.140625 C 21.210938 -0.046875 21.019531 0 20.71875 0 L 18.59375 0 C 18.125 0 17.71875 -0.148438 17.375 -0.453125 C 17.039062 -0.753906 16.863281 -1.160156 16.84375 -1.671875 L 16.421875 -8.015625 L 12.515625 -8.015625 L 12.109375 -1.671875 C 12.078125 -1.160156 11.898438 -0.753906 11.578125 -0.453125 C 11.253906 -0.148438 10.859375 0 10.390625 0 L 8.265625 0 C 7.960938 0 7.765625 -0.046875 7.671875 -0.140625 C 7.578125 -0.234375 7.53125 -0.382812 7.53125 -0.59375 Z M 12.703125 -11.75 L 16.25 -11.75 L 14.46875 -40.28125 Z M 12.703125 -11.75 "/></g></g></g><g fill="#ffffff" fill-opacity="1"><g transform="translate(100.242236, 60.757599)"><g><path d="M 8.265625 -46.875 L 19.5625 -46.875 C 20.101562 -46.875 20.375 -46.570312 20.375 -45.96875 L 20.375 -45.3125 C 20.375 -44.539062 20.191406 -43.960938 19.828125 -43.578125 C 19.460938 -43.191406 18.957031 -43 18.3125 -43 L 16.25 -43 L 16.25 -0.984375 C 16.25 -0.328125 15.925781 0 15.28125 0 L 12.703125 0 C 12.066406 0 11.75 -0.328125 11.75 -0.984375 L 11.75 -43 L 9.515625 -43 C 8.867188 -43 8.363281 -43.191406 8 -43.578125 C 7.644531 -43.960938 7.46875 -44.539062 7.46875 -45.3125 L 7.46875 -45.96875 C 7.46875 -46.570312 7.734375 -46.875 8.265625 -46.875 Z M 8.265625 -46.875 "/></g></g></g><g fill="#ffffff" fill-opacity="1"><g transform="translate(145.280787, 60.757599)"><g><path d="M 8.71875 -1.015625 L 8.71875 -45.140625 C 8.71875 -45.671875 8.894531 -46.09375 9.25 -46.40625 C 9.613281 -46.71875 10.03125 -46.875 10.5 -46.875 L 12.421875 -46.875 C 12.765625 -46.875 12.984375 -46.816406 13.078125 -46.703125 C 13.171875 -46.585938 13.21875 -46.378906 13.21875 -46.078125 L 13.21875 -1.015625 C 13.21875 -0.335938 12.878906 0 12.203125 0 L 9.703125 0 C 9.046875 0 8.71875 -0.335938 8.71875 -1.015625 Z M 10.953125 -49.078125 C 10.023438 -49.078125 9.332031 -49.289062 8.875 -49.71875 C 8.425781 -50.144531 8.203125 -50.707031 8.203125 -51.40625 C 8.203125 -52.132812 8.425781 -52.707031 8.875 -53.125 C 9.332031 -53.539062 10.023438 -53.75 10.953125 -53.75 C 11.898438 -53.75 12.601562 -53.539062 13.0625 -53.125 C 13.519531 -52.707031 13.75 -52.132812 13.75 -51.40625 C 13.75 -50.707031 13.519531 -50.144531 13.0625 -49.71875 C 12.601562 -49.289062 11.898438 -49.078125 10.953125 -49.078125 Z M 10.953125 -49.078125 "/></g></g></g><g fill="#ffffff" fill-opacity="1"><g transform="translate(184.495171, 60.757599)"><g><path d="M 9.453125 -46.875 L 11.40625 -46.875 C 11.875 -46.875 12.28125 -46.71875 12.625 -46.40625 C 12.976562 -46.09375 13.15625 -45.671875 13.15625 -45.140625 L 13.15625 -25.734375 L 17.015625 -25.734375 L 17.015625 -45.140625 C 17.015625 -45.671875 17.1875 -46.09375 17.53125 -46.40625 C 17.882812 -46.71875 18.296875 -46.875 18.765625 -46.875 L 20.71875 -46.875 C 21.0625 -46.875 21.28125 -46.816406 21.375 -46.703125 C 21.46875 -46.585938 21.515625 -46.378906 21.515625 -46.078125 L 21.515625 -0.84375 C 21.515625 -0.28125 21.238281 0 20.6875 0 L 18.828125 0 C 18.316406 0 17.882812 -0.160156 17.53125 -0.484375 C 17.1875 -0.816406 17.015625 -1.25 17.015625 -1.78125 L 17.015625 -21.96875 L 13.15625 -21.96875 L 13.15625 -1.78125 C 13.15625 -1.25 12.976562 -0.816406 12.625 -0.484375 C 12.28125 -0.160156 11.847656 0 11.328125 0 L 9.484375 0 C 8.929688 0 8.65625 -0.28125 8.65625 -0.84375 L 8.65625 -46.078125 C 8.65625 -46.378906 8.695312 -46.585938 8.78125 -46.703125 C 8.875 -46.816406 9.097656 -46.875 9.453125 -46.875 Z M 9.453125 -46.875 "/></g></g></g><g fill="#ffffff" fill-opacity="1"><g transform="translate(10.176608, 123.723993)"><g><path d="M 7.53125 -0.796875 L 11.375 -45.90625 C 11.414062 -46.320312 11.550781 -46.585938 11.78125 -46.703125 C 12.019531 -46.816406 12.335938 -46.875 12.734375 -46.875 L 16.25 -46.875 C 16.664062 -46.875 16.984375 -46.816406 17.203125 -46.703125 C 17.429688 -46.585938 17.554688 -46.320312 17.578125 -45.90625 L 21.421875 -0.796875 L 21.421875 -0.59375 C 21.421875 -0.382812 21.378906 -0.234375 21.296875 -0.140625 C 21.210938 -0.046875 21.019531 0 20.71875 0 L 18.59375 0 C 18.125 0 17.71875 -0.148438 17.375 -0.453125 C 17.039062 -0.753906 16.863281 -1.160156 16.84375 -1.671875 L 16.421875 -8.015625 L 12.515625 -8.015625 L 12.109375 -1.671875 C 12.078125 -1.160156 11.898438 -0.753906 11.578125 -0.453125 C 11.253906 -0.148438 10.859375 0 10.390625 0 L 8.265625 0 C 7.960938 0 7.765625 -0.046875 7.671875 -0.140625 C 7.578125 -0.234375 7.53125 -0.382812 7.53125 -0.59375 Z M 12.703125 -11.75 L 16.25 -11.75 L 14.46875 -40.28125 Z M 12.703125 -11.75 "/></g></g></g><g fill="#ffffff" fill-opacity="1"><g transform="translate(54.260687, 123.723993)"><g><path d="M 11.375 0 L 9.453125 0 C 9.128906 0 8.914062 -0.0625 8.8125 -0.1875 C 8.707031 -0.320312 8.65625 -0.539062 8.65625 -0.84375 L 8.65625 -46.046875 C 8.65625 -46.367188 8.707031 -46.585938 8.8125 -46.703125 C 8.914062 -46.816406 9.128906 -46.875 9.453125 -46.875 L 15.203125 -46.875 C 16.691406 -46.875 17.90625 -46.609375 18.84375 -46.078125 C 19.789062 -45.546875 20.492188 -44.847656 20.953125 -43.984375 C 21.421875 -43.117188 21.65625 -42.210938 21.65625 -41.265625 L 21.65625 -25.734375 C 21.65625 -23.648438 20.925781 -22.140625 19.46875 -21.203125 C 20.925781 -20.554688 21.65625 -19.382812 21.65625 -17.6875 L 21.65625 -0.84375 C 21.65625 -0.539062 21.597656 -0.320312 21.484375 -0.1875 C 21.367188 -0.0625 21.148438 0 20.828125 0 L 18.90625 0 C 18.457031 0 18.050781 -0.160156 17.6875 -0.484375 C 17.332031 -0.816406 17.15625 -1.222656 17.15625 -1.703125 L 17.15625 -17.65625 C 17.15625 -18.113281 16.992188 -18.519531 16.671875 -18.875 C 16.347656 -19.238281 15.835938 -19.421875 15.140625 -19.421875 L 13.15625 -19.421875 L 13.15625 -1.703125 C 13.15625 -1.222656 12.972656 -0.816406 12.609375 -0.484375 C 12.242188 -0.160156 11.832031 0 11.375 0 Z M 15.140625 -43 L 13.15625 -43 L 13.15625 -23.296875 L 15.3125 -23.296875 C 16.03125 -23.296875 16.515625 -23.566406 16.765625 -24.109375 C 17.023438 -24.660156 17.15625 -25.226562 17.15625 -25.8125 L 17.15625 -41.234375 C 17.15625 -41.691406 16.992188 -42.097656 16.671875 -42.453125 C 16.347656 -42.816406 15.835938 -43 15.140625 -43 Z M 15.140625 -43 "/></g></g></g><g fill="#ffffff" fill-opacity="1"><g transform="translate(99.600269, 123.723993)"><g><path d="M 10.25 -20.6875 L 18.625 -20.6875 C 18.925781 -20.6875 19.132812 -20.640625 19.25 -20.546875 C 19.363281 -20.453125 19.421875 -20.242188 19.421875 -19.921875 L 19.421875 -18.625 C 19.421875 -18.039062 19.265625 -17.554688 18.953125 -17.171875 C 18.640625 -16.796875 18.21875 -16.609375 17.6875 -16.609375 L 9.421875 -16.609375 C 9.210938 -16.609375 9.019531 -16.648438 8.84375 -16.734375 C 8.664062 -16.828125 8.578125 -17.0625 8.578125 -17.4375 L 8.578125 -18.90625 C 8.578125 -19.414062 8.734375 -19.835938 9.046875 -20.171875 C 9.359375 -20.515625 9.757812 -20.6875 10.25 -20.6875 Z M 10.25 -20.6875 "/></g></g></g><g fill="#ffffff" fill-opacity="1"><g transform="translate(142.638086, 123.723993)"><g><path d="M 8.609375 -4.921875 L 8.609375 -42 C 8.609375 -43.039062 8.875 -43.984375 9.40625 -44.828125 C 9.945312 -45.679688 10.710938 -46.351562 11.703125 -46.84375 C 12.691406 -47.332031 13.859375 -47.578125 15.203125 -47.578125 C 16.535156 -47.578125 17.679688 -47.328125 18.640625 -46.828125 C 19.609375 -46.328125 20.351562 -45.65625 20.875 -44.8125 C 21.394531 -43.976562 21.65625 -43.039062 21.65625 -42 L 21.65625 -27.140625 C 21.65625 -26.671875 21.390625 -26.4375 20.859375 -26.4375 L 18.828125 -26.4375 C 18.503906 -26.4375 18.144531 -26.539062 17.75 -26.75 C 17.351562 -26.957031 17.15625 -27.296875 17.15625 -27.765625 L 17.15625 -41.828125 C 17.15625 -42.285156 16.988281 -42.691406 16.65625 -43.046875 C 16.320312 -43.410156 15.816406 -43.59375 15.140625 -43.59375 C 14.460938 -43.59375 13.953125 -43.410156 13.609375 -43.046875 C 13.273438 -42.691406 13.109375 -42.285156 13.109375 -41.828125 L 13.109375 -5.0625 C 13.109375 -4.613281 13.269531 -4.207031 13.59375 -3.84375 C 13.925781 -3.488281 14.441406 -3.3125 15.140625 -3.3125 C 15.878906 -3.3125 16.398438 -3.503906 16.703125 -3.890625 C 17.003906 -4.273438 17.15625 -4.664062 17.15625 -5.0625 L 17.15625 -17.6875 L 16.703125 -17.6875 C 16.054688 -17.6875 15.609375 -17.875 15.359375 -18.25 C 15.117188 -18.632812 15 -19.191406 15 -19.921875 L 15 -21 C 15 -21.582031 15.265625 -21.875 15.796875 -21.875 L 20.890625 -21.875 C 21.398438 -21.875 21.65625 -21.628906 21.65625 -21.140625 L 21.65625 -4.921875 C 21.65625 -3.867188 21.390625 -2.914062 20.859375 -2.0625 C 20.328125 -1.21875 19.566406 -0.550781 18.578125 -0.0625 C 17.585938 0.414062 16.414062 0.65625 15.0625 0.65625 C 13.738281 0.65625 12.59375 0.414062 11.625 -0.0625 C 10.664062 -0.550781 9.921875 -1.21875 9.390625 -2.0625 C 8.867188 -2.914062 8.609375 -3.867188 8.609375 -4.921875 Z M 8.609375 -4.921875 "/></g></g></g><g fill="#ffffff" fill-opacity="1"><g transform="translate(187.942787, 123.723993)"><g><path d="M 17.09375 -43 L 13.21875 -43 L 13.21875 -25.140625 L 17.6875 -25.140625 C 18.21875 -25.140625 18.484375 -24.851562 18.484375 -24.28125 L 18.484375 -23.578125 C 18.484375 -22.835938 18.300781 -22.269531 17.9375 -21.875 C 17.582031 -21.476562 17.078125 -21.28125 16.421875 -21.28125 L 13.21875 -21.28125 L 13.21875 -3.875 L 17.09375 -3.875 C 17.738281 -3.875 18.242188 -3.679688 18.609375 -3.296875 C 18.972656 -2.910156 19.15625 -2.332031 19.15625 -1.5625 L 19.15625 -0.90625 C 19.15625 -0.300781 18.882812 0 18.34375 0 L 9.734375 0 C 9.285156 0 9.003906 -0.0546875 8.890625 -0.171875 C 8.773438 -0.285156 8.71875 -0.507812 8.71875 -0.84375 L 8.71875 -46.046875 C 8.71875 -46.367188 8.769531 -46.585938 8.875 -46.703125 C 8.976562 -46.816406 9.191406 -46.875 9.515625 -46.875 L 18.34375 -46.875 C 18.882812 -46.875 19.15625 -46.570312 19.15625 -45.96875 L 19.15625 -45.3125 C 19.15625 -44.5625 18.972656 -43.988281 18.609375 -43.59375 C 18.242188 -43.195312 17.738281 -43 17.09375 -43 Z M 17.09375 -43 "/></g></g></g></svg>